<svg id="visual" viewBox="0 0 960 200" width="960" height="200" xmlns="http://www.w3.org/2000/svg" xmlns:xlink="http://www.w3.org/1999/xlink" version="1.1"><rect x="0" y="0" width="960" height="200" fill="#002233"></rect><path d="M0 105L20 111.2C40 117.3 80 129.7 120 137.2C160 144.7 200 147.3 240 142.2C280 137 320 124 360 122.8C400 121.7 440 132.3 480 134C520 135.7 560 128.3 600 125.3C640 122.3 680 123.7 720 134.2C760 144.7 800 164.3 840 162.2C880 160 920 136 940 124L960 112L960 201L940 201C920 201 880 201 840 201C800 201 760 201 720 201C680 201 640 201 600 201C560 201 520 201 480 201C440 201 400 201 360 201C320 201 280 201 240 201C200 201 160 201 120 201C80 201 40 201 20 201L0 201Z" fill="#0066FF" stroke-linecap="round" stroke-linejoin="miter"></path></svg>